<svg viewBox="100 950 1800 1200" xmlns="http://www.w3.org/2000/svg">
  <style>
    path { fill: #000; }
    @media (prefers-color-scheme: dark) {
      path { fill: #FFF; }
    }
  </style>
  <g transform="translate(1000, 1550) scale(1.65) translate(-600, -600)">
    <path d="m459.89 677.29h-347.39v-40.828h347.39c67.734 0 123.52 52.312 128.95 118.69h-41.062c-5.2969-43.781-42.703-77.859-87.891-77.859zm0 21.422h-347.39v56.438h413.68c-5.1562-31.922-32.906-56.438-66.281-56.438zm-347.39 149.81h425.21c4.875 0 9.1406 3.3281 10.359 8.0625 5.8594 22.781 26.391 38.672 49.922 38.672s44.062-15.891 49.922-38.672c1.2188-4.7344 5.4844-8.0625 10.359-8.0625h429.14v-72l-974.9 0.046874v72zm883.6-477.1 15.234 27.844 15.234-27.844c0.98438-1.7812 2.4844-3.2812 4.2656-4.2656l27.844-15.234-27.844-15.234c-1.7812-0.98438-3.2812-2.4844-4.2656-4.2656l-15.234-27.844-15.234 27.844c-0.98438 1.7812-2.4844 3.2812-4.2656 4.2656l-27.844 15.234 27.844 15.234c1.7812 0.98438 3.2812 2.4844 4.2656 4.2656zm-769.4 118.03 15.234 27.844 15.234-27.844c0.98438-1.7812 2.4844-3.2812 4.2656-4.2656l27.844-15.234-27.844-15.234c-1.7812-0.98438-3.2812-2.4844-4.2656-4.2656l-15.234-27.844-15.234 27.844c-0.98437 1.7812-2.4844 3.2812-4.2656 4.2656l-27.844 15.234 27.844 15.234c1.7812 0.98438 3.2812 2.4844 4.2656 4.2656zm447.14 265.64h413.68v-56.438h-347.39c-33.375 0-61.125 24.469-66.281 56.438zm66.281-118.69c-67.734 0-123.52 52.312-128.95 118.69h41.062c5.2969-43.781 42.703-77.859 87.891-77.859h347.39v-40.828zm-140.11-96.516c5.9062 0 10.734-4.7812 10.734-10.734v-155.68c0-5.9062-4.7812-10.734-10.734-10.734-5.9062 0-10.734 4.7812-10.734 10.734v155.68c0 5.9062 4.7812 10.734 10.734 10.734zm-140.34 28.312c1.875 3.75 5.6719 5.9062 9.6094 5.9062 1.5938 0 3.2344-0.375 4.7812-1.125 5.2969-2.625 7.4531-9.0938 4.7812-14.391l-87.562-175.18c-2.625-5.2969-9.0938-7.4531-14.391-4.7812-5.2969 2.625-7.4531 9.0938-4.7812 14.391zm265.97 4.7812c1.5469 0.75 3.1875 1.125 4.7812 1.125 3.9375 0 7.7344-2.1562 9.6094-5.9062l87.562-175.18c2.625-5.2969 0.51562-11.719-4.7812-14.391-5.2969-2.625-11.719-0.51562-14.391 4.7812l-87.562 175.18c-2.625 5.2969-0.51562 11.719 4.7812 14.391z"/>
  </g>
</svg>
