<svg viewBox="100 -200 1800 2280" xmlns="http://www.w3.org/2000/svg">
  <style>
    path { fill: #000; }
    @media (prefers-color-scheme: dark) {
      path { fill: #FFF; }
    }
  </style>
  <g transform="translate(1000, 350) scale(0.9) translate(-600, -600)">
    <path d="m28.441 509.28c0.60156 5.0391 2.2812 9.3594 3.7188 13.801 3.1211 8.6406 7.3203 16.078 11.762 22.68 8.8789 13.078 18.602 23.879 28.559 33.48 19.801 19.441 40.32 35.641 60.84 51.719 41.16 31.68 82.559 61.559 123.72 91.922l23.641 17.281c-5.1602 15.602-10.441 31.32-15.602 47.039-16.078 48.48-32.641 96.719-47.641 146.88-7.3203 25.199-14.52 50.762-19.078 79.32-1.9219 14.52-3.6016 29.762-1.5586 48 1.1992 9.1211 3.2383 19.078 7.9219 29.16l3.7188 7.5586c1.3203 2.6406 2.3984 3.9609 3.6016 6 2.3984 3.7188 5.0391 7.3203 7.9219 10.801 11.281 13.922 25.441 25.559 41.398 33.84 8.0391 4.1992 16.441 7.5586 25.078 9.9609 1.9219 0.60156 4.6797 1.1992 7.5586 1.6797l8.5195 1.3203c5.5195 0.48047 10.68 0.23828 16.078 0.23828 20.398-1.6797 35.52-7.8008 49.441-13.68 14.039-6 26.16-12.84 38.16-19.68 46.922-27.84 88.078-57.961 130.08-87.359 24.961-17.641 51.602-36.602 78.719-56.039l13.078 9.6016c41.281 30.121 82.199 60.602 124.8 90.238 21.48 14.762 43.078 29.398 67.32 42.48 12.121 6.4805 25.078 12.602 39.961 17.281 3.9609 0.96094 7.5586 2.1602 11.762 3 4.3203 0.60156 8.3984 1.4414 12.84 1.6797 4.6797 0 9.1211 0.48047 14.039-0.35938 4.8008-0.71875 10.078-1.5586 13.68-2.6406 15.719-4.4414 30.48-12.238 43.078-22.68 6.2383-5.1602 12-11.039 17.16-17.398s9.3594-12.719 13.68-22.199c7.5586-17.879 7.6797-34.441 7.0781-49.078-0.83984-14.762-3-28.559-5.6406-41.762-11.16-52.68-27.48-101.16-42.719-150.12l-35.398-110.28c21.121-6.2383 49.801-23.16 81.84-44.762 28.559-19.199 59.641-42.359 90-67.199 15.121-12.48 30-25.441 44.16-39.238 13.922-13.922 27.48-28.68 37.559-48.121 1.9219-3.8398 3.8398-7.6797 5.1602-12.238l2.1602-6.6016 1.3203-7.1992c0.96094-5.1602 1.0781-9.1211 1.1992-13.199 0-4.0781 0-8.1602-0.48047-12.238-1.4414-16.32-6.1211-32.398-13.801-46.801-3.8398-7.1992-8.3984-14.16-13.68-20.398-3.2383-3.4805-6.8398-7.3203-10.441-10.32-3.7188-2.6406-7.5586-5.8789-11.398-7.8008-15.48-8.8789-30.238-12.84-44.281-15.719-28.199-5.7617-54.359-6.9609-80.52-8.2812-26.16-1.0781-51.84-1.4414-77.52-1.5586h-126.96l-35.641-112.08c-7.9219-24.359-15.84-48.84-24.48-73.441-8.7617-24.602-17.762-49.199-30.121-74.16-6.2383-12.48-13.199-25.078-23.641-37.801-5.1602-6.2383-11.398-12.48-19.32-18-3.6016-2.8789-8.5195-5.0391-12.84-7.3203-4.1992-1.9219-7.8008-3.1211-11.879-4.4414-15.84-5.0391-32.762-6.6016-49.199-4.8008-16.559 2.2812-32.039 5.7617-49.199 18-15.121 11.52-24.121 24.719-31.922 37.078-7.5586 12.602-13.441 24.961-19.078 37.441-10.922 24.719-19.68 49.199-28.32 73.68-18.359 55.199-36.602 110.4-54.961 165.48h-95.879c-51.359 0.48047-102.36-0.23828-156.24 5.2812-13.441 1.3203-27.359 3.7188-41.762 7.3203-14.281 3.8398-30.121 9.2383-45.238 21.961-3.4805 3.3594-7.5586 7.3203-10.078 10.441-2.6406 3.2383-5.0391 6.6016-7.3203 9.9609-4.5586 6.9609-8.2812 14.281-11.281 21.961-6 15.359-9 31.922-8.5195 48.359l0.35938 6.2383 1.0781 7.3203zm716.64-65.641 68.641 213 25.078 77.879c-54 21.602-148.32 87.48-238.68 153l-8.3984-6.1211-222.12-163.68 87.84-274.32h127.2l160.56 0.35937zm-245.04 516.96c-40.32 29.281-80.52 59.16-120.36 85.078-19.68 12.719-40.199 24.84-56.398 30.359-7.9219 2.8789-13.68 3-13.922 2.7617h-0.23828c-0.23828 0-0.71875-0.23828-1.0781-0.23828-0.83984-0.23828-1.5586-0.35938-2.2812-0.71875-1.5586-0.48047-3.1211-1.0781-4.5586-1.8008-3-1.3203-5.7617-2.8789-8.5195-4.8008-5.2812-3.8398-9.9609-8.6406-13.32-14.281-0.48047-0.48047-2.0391-4.6797-2.0391-12.961 0-16.801 4.5586-39.84 10.441-62.52 11.879-45.84 27.48-93.48 42.602-140.88l16.68-52.078 157.56 115.32 36.602 26.762c-14.039 10.32-27.719 20.281-40.922 29.879zm425.28 83.398c-0.12109 1.9219-0.23828 3.9609-0.35938 5.8789-0.23828 1.5586-0.60156 2.8789-0.71875 4.4414-0.48047 0.83984-0.60156 1.9219-0.83984 2.5195-0.23828 0.12109-0.35938 0.35938-0.35938 0.48047v0.35938l-0.71875 1.0781c-3.9609 6-9 11.16-15 15-3 1.9219-6.1211 3.4805-9.3594 4.8008-1.6797 0.60156-3.3594 1.1992-5.0391 1.6797-1.0781 0.35938-1.3203 0.23828-1.4414 0.23828-0.12109 0-0.35938 0-0.48047 0.12109-2.0391 0.35938-9.8398-0.83984-18.84-4.8008-9.1211-3.8398-19.078-8.7617-29.281-14.879-41.039-24.359-83.281-56.16-125.04-86.641l-43.922-32.398c74.641-55.199 145.08-111 182.4-152.52l3.2383 10.078c15.238 47.641 30.84 95.16 44.52 142.08 7.0781 24.359 13.801 48.84 18 71.641 1.9219 11.16 3.2383 22.078 3.2383 30.961zm50.039-599.28c25.32 0.71875 50.52 1.8008 73.32 4.6797 11.039 1.5586 21.719 3.6016 29.641 6.2383 1.6797 0.71875 3.3594 1.4414 5.0391 2.0391 1.3203 0.71875 2.2812 1.3203 3.4805 1.8008 0.48047 0.60156 1.1992 0.96094 1.5586 1.1992 0 0.12109 0 0.23828 0.12109 0.23828h0.23828l0.71875 0.96094c4.1992 5.2812 7.3203 11.398 9 17.879 0.83984 3.2383 1.3203 6.6016 1.5586 9.9609v5.0391 1.3203s-0.23828 0.12109-0.23828 0.23828v0.35938c-0.12109 2.0391-6.4805 12.961-17.281 23.641-10.68 10.922-24.48 22.441-38.762 33.84-28.559 22.801-59.762 45.48-86.52 67.078-26.879 21.238-49.441 41.641-64.199 59.398l-75.719-236.88h80.762c26.039 0.23828 51.961 0.35938 77.281 1.0781zm-462.36-175.08c7.6797-23.52 15.359-47.039 23.641-69.602 8.1602-22.441 16.922-44.879 26.641-63.121 4.8008-9 10.078-16.559 14.039-20.641 0.96094-1.0781 1.9219-2.0391 2.5195-2.2812 0.35938-0.23828 0.60156-0.48047 0.83984-0.83984h0.48047c0.35938 0-0.23828-0.23828 0.71875-0.48047 0.83984-0.23828 1.5586-0.60156 2.3984-0.83984 1.5586-0.60156 3.1211-1.0781 4.8008-1.4414 6.4805-1.5586 13.32-1.8008 19.801-0.60156 3.2383 0.60156 6.4805 1.4414 9.6016 2.6406 1.4414 0.60156 0.71875 0.71875 1.4414 0.71875 0.48047 0.48047 1.1992 1.0781 1.9219 1.4414 3.4805 2.7617 8.8789 10.199 13.801 18.719 5.0391 8.3984 9.7188 18.84 14.281 29.039 9 21.238 17.281 44.039 25.199 67.199 15.84 46.199 30.84 93.719 46.199 141h-107.4-133.32l32.281-100.68zm-411.12 205.8c1.1992-3.2383 2.6406-6.3594 4.4414-9.3594 0.96094-1.4414 1.9219-2.8789 2.8789-4.1992 0.48047-0.60156 1.1992-1.5586 1.4414-1.8008 0.23828 0 0.23828 0 0.35938-0.23828 0.60156-0.96094 6.8398-4.5586 15.961-6.8398 18.238-4.9219 43.32-6.9609 67.922-8.2812 24.961-1.1992 50.641-1.4414 76.441-1.6797h107.76c-24.961 75.48-50.039 150.84-75 226.2l-90.48-66.961c-20.641-15.48-41.039-31.078-60.121-46.922-18.84-15.602-37.441-32.398-48-46.801-5.1602-7.1992-6.7188-12.121-6.6016-12.719-0.48047-6.9609 0.60156-14.039 2.8789-20.52z"/>
  </g>

  <g transform="translate(1000, 1550) scale(1.65) translate(-600, -600)">
    <path d="m459.89 677.29h-347.39v-40.828h347.39c67.734 0 123.52 52.312 128.95 118.69h-41.062c-5.2969-43.781-42.703-77.859-87.891-77.859zm0 21.422h-347.39v56.438h413.68c-5.1562-31.922-32.906-56.438-66.281-56.438zm-347.39 149.81h425.21c4.875 0 9.1406 3.3281 10.359 8.0625 5.8594 22.781 26.391 38.672 49.922 38.672s44.062-15.891 49.922-38.672c1.2188-4.7344 5.4844-8.0625 10.359-8.0625h429.14v-72l-974.9 0.046874v72zm883.6-477.1 15.234 27.844 15.234-27.844c0.98438-1.7812 2.4844-3.2812 4.2656-4.2656l27.844-15.234-27.844-15.234c-1.7812-0.98438-3.2812-2.4844-4.2656-4.2656l-15.234-27.844-15.234 27.844c-0.98438 1.7812-2.4844 3.2812-4.2656 4.2656l-27.844 15.234 27.844 15.234c1.7812 0.98438 3.2812 2.4844 4.2656 4.2656zm-769.4 118.03 15.234 27.844 15.234-27.844c0.98438-1.7812 2.4844-3.2812 4.2656-4.2656l27.844-15.234-27.844-15.234c-1.7812-0.98438-3.2812-2.4844-4.2656-4.2656l-15.234-27.844-15.234 27.844c-0.98437 1.7812-2.4844 3.2812-4.2656 4.2656l-27.844 15.234 27.844 15.234c1.7812 0.98438 3.2812 2.4844 4.2656 4.2656zm447.14 265.64h413.68v-56.438h-347.39c-33.375 0-61.125 24.469-66.281 56.438zm66.281-118.69c-67.734 0-123.52 52.312-128.95 118.69h41.062c5.2969-43.781 42.703-77.859 87.891-77.859h347.39v-40.828zm-140.11-96.516c5.9062 0 10.734-4.7812 10.734-10.734v-155.68c0-5.9062-4.7812-10.734-10.734-10.734-5.9062 0-10.734 4.7812-10.734 10.734v155.68c0 5.9062 4.7812 10.734 10.734 10.734zm-140.34 28.312c1.875 3.75 5.6719 5.9062 9.6094 5.9062 1.5938 0 3.2344-0.375 4.7812-1.125 5.2969-2.625 7.4531-9.0938 4.7812-14.391l-87.562-175.18c-2.625-5.2969-9.0938-7.4531-14.391-4.7812-5.2969 2.625-7.4531 9.0938-4.7812 14.391zm265.97 4.7812c1.5469 0.75 3.1875 1.125 4.7812 1.125 3.9375 0 7.7344-2.1562 9.6094-5.9062l87.562-175.18c2.625-5.2969 0.51562-11.719-4.7812-14.391-5.2969-2.625-11.719-0.51562-14.391 4.7812l-87.562 175.18c-2.625 5.2969-0.51562 11.719 4.7812 14.391z"/>
  </g>
</svg>
